<svg aria-hidden="true" style="position: absolute; width: 0; height: 0; overflow: hidden;" version="1.1" xmlns="http://www.w3.org/2000/svg" xmlns:xlink="http://www.w3.org/1999/xlink">
<defs>
<symbol id="ic-bell" viewBox="0 0 32 32">
<path d="M16 32c2.207 0 3.998-1.791 3.998-4h-7.996c0 2.209 1.791 4 3.998 4zM29.462 22.643c-1.207-1.297-3.467-3.249-3.467-9.643 0-4.856-3.405-8.744-7.996-9.697v-1.303c0-1.104-0.895-2-1.999-2s-1.999 0.896-1.999 2v1.303c-4.591 0.954-7.996 4.841-7.996 9.697 0 6.394-2.259 8.346-3.467 9.643-0.375 0.403-0.541 0.885-0.538 1.357 0.007 1.025 0.811 2 2.006 2h23.987c1.195 0 2-0.975 2.006-2 0.003-0.472-0.163-0.954-0.538-1.357z"></path>
</symbol>
<symbol id="ic-board" viewBox="0 0 32 32">
<path d="M32 9.6c0-0.88-0.72-1.6-1.6-1.6h-1.6v-3.2c0-1.76-1.44-3.2-3.2-3.2h-22.4c-1.76 0-3.2 1.44-3.2 3.2v22.4c0 1.76 1.44 3.2 3.2 3.2h22.4c1.76 0 3.2-1.44 3.2-3.2v-3.2h1.6c0.88 0 1.6-0.72 1.6-1.6s-0.72-1.6-1.6-1.6h-1.6v-3.2h1.6c0.88 0 1.6-0.72 1.6-1.6s-0.72-1.6-1.6-1.6h-1.6v-3.2h1.6c0.88 0 1.6-0.72 1.6-1.6zM24 27.2h-19.2c-0.88 0-1.6-0.72-1.6-1.6v-19.2c0-0.88 0.72-1.6 1.6-1.6h19.2c0.88 0 1.6 0.72 1.6 1.6v19.2c0 0.88-0.72 1.6-1.6 1.6zM7.2 17.6h6.4c0.448 0 0.8 0.352 0.8 0.8v4.8c0 0.448-0.352 0.8-0.8 0.8h-6.4c-0.448 0-0.8-0.352-0.8-0.8v-4.8c0-0.448 0.352-0.8 0.8-0.8zM16.8 8h4.8c0.448 0 0.8 0.352 0.8 0.8v3.2c0 0.448-0.352 0.8-0.8 0.8h-4.8c-0.448 0-0.8-0.352-0.8-0.8v-3.2c0-0.448 0.352-0.8 0.8-0.8zM7.2 8h6.4c0.448 0 0.8 0.352 0.8 0.8v6.4c0 0.448-0.352 0.8-0.8 0.8h-6.4c-0.448 0-0.8-0.352-0.8-0.8v-6.4c0-0.448 0.352-0.8 0.8-0.8zM16.8 14.4h4.8c0.448 0 0.8 0.352 0.8 0.8v8c0 0.448-0.352 0.8-0.8 0.8h-4.8c-0.448 0-0.8-0.352-0.8-0.8v-8c0-0.448 0.352-0.8 0.8-0.8z"></path>
</symbol>
<symbol id="ic-hub" viewBox="0 0 32 32">
<path d="M24.889 23.111l-7.111-7.111v-5.653c2.4-0.871 4.018-3.36 3.431-6.151-0.444-2.098-2.187-3.769-4.302-4.124-3.342-0.551-6.24 2.009-6.24 5.262 0 2.311 1.493 4.267 3.556 5.013v5.653l-7.111 7.111h-5.333c-0.978 0-1.778 0.8-1.778 1.778v5.333c0 0.978 0.8 1.778 1.778 1.778h5.333c0.978 0 1.778-0.8 1.778-1.778v-3.644l7.111-7.467 7.111 7.467v3.644c0 0.978 0.8 1.778 1.778 1.778h5.333c0.978 0 1.778-0.8 1.778-1.778v-5.333c0-0.978-0.8-1.778-1.778-1.778h-5.333z"></path>
</symbol>
<symbol id="ic-share" viewBox="0 0 32 32">
<path fill="#4a4a4a" style="fill: var(--color1, #4a4a4a)" d="M5.713 21.462c1.328 0 2.551-0.455 3.521-1.216l10.841 5.352c0 0.022-0.001 0.041-0.001 0.063 0 3.155 2.559 5.713 5.713 5.713s5.713-2.559 5.713-5.713c0-3.154-2.559-5.713-5.713-5.713-1.679 0-3.188 0.723-4.232 1.875l-10.223-5.047c0.060-0.332 0.093-0.675 0.093-1.026 0-0.071-0.002-0.14-0.005-0.21l10.575-5.553c1.009 0.895 2.337 1.44 3.791 1.44 3.156 0 5.713-2.558 5.713-5.713 0-3.156-2.559-5.713-5.713-5.713s-5.713 2.557-5.713 5.713c0 0.236 0.017 0.467 0.044 0.695l-10.276 5.396c-1.040-1.088-2.505-1.767-4.129-1.767-3.155 0-5.713 2.559-5.713 5.713s2.558 5.712 5.713 5.712z"></path>
</symbol>
<symbol id="ic-star" viewBox="0 0 32 32">
<path d="M16 25.232l9.888 5.968-2.624-11.248 8.736-7.568-11.504-0.976-4.496-10.608-4.496 10.608-11.504 0.976 8.736 7.568-2.624 11.248z"></path>
</symbol>
<symbol id="ic-thumb" viewBox="0 0 32 32">
<path d="M0 30.545h5.818v-17.455h-5.818v17.455zM32 14.545c0-1.6-1.309-2.909-2.909-2.909h-9.164l1.455-6.691c0-0.145 0-0.291 0-0.436 0-0.582-0.291-1.164-0.582-1.6l-1.6-1.455-9.6 9.6c-0.582 0.436-0.873 1.164-0.873 2.036v14.545c0 1.6 1.309 2.909 2.909 2.909h13.091c1.164 0 2.182-0.727 2.618-1.745l4.364-10.327c0.145-0.291 0.145-0.727 0.145-1.018v-2.909h0.145c0 0.146 0 0 0 0z"></path>
</symbol>
</defs>
</svg>
